<mxfile host="app.diagrams.net" modified="2023-03-29T08:42:09.080Z" agent="5.0 (Windows NT 10.0; Win64; x64) AppleWebKit/537.36 (KHTML, like Gecko) Chrome/111.0.0.0 Safari/537.36" etag="IWKtJV4s0PmuBnx3KcpC" version="21.0.6" type="gitlab">
  <diagram name="Page-1" id="03018318-947c-dd8e-b7a3-06fadd420f32">
    <mxGraphModel dx="1982" dy="1194" grid="1" gridSize="10" guides="1" tooltips="1" connect="1" arrows="1" fold="1" page="1" pageScale="1" pageWidth="1100" pageHeight="850" background="none" math="0" shadow="0">
      <root>
        <mxCell id="0" />
        <mxCell id="1" parent="0" />
        <mxCell id="677b7b8949515195-1" value="" style="whiteSpace=wrap;html=1;rounded=0;shadow=0;labelBackgroundColor=none;strokeColor=#000000;strokeWidth=1;fillColor=none;fontFamily=Verdana;fontSize=12;fontColor=#000000;align=center;comic=1;" parent="1" vertex="1">
          <mxGeometry x="80" y="20" width="1060" height="540" as="geometry" />
        </mxCell>
        <mxCell id="677b7b8949515195-2" value="ALL NEWS" style="whiteSpace=wrap;html=1;rounded=0;shadow=0;labelBackgroundColor=none;strokeWidth=1;fontFamily=Verdana;fontSize=28;align=center;comic=1;" parent="1" vertex="1">
          <mxGeometry x="90" y="60" width="190" height="50" as="geometry" />
        </mxCell>
        <mxCell id="677b7b8949515195-9" value="" style="line;strokeWidth=1;html=1;rounded=0;shadow=0;labelBackgroundColor=none;fillColor=none;fontFamily=Verdana;fontSize=14;fontColor=#000000;align=center;comic=1;" parent="1" vertex="1">
          <mxGeometry x="80" y="140" width="1060" height="10" as="geometry" />
        </mxCell>
        <mxCell id="KhCQIPUPEyG-kLh92zz_-6" value="LOGO" style="whiteSpace=wrap;html=1;rounded=0;shadow=0;labelBackgroundColor=none;strokeWidth=1;fontFamily=Verdana;fontSize=28;align=center;comic=1;" vertex="1" parent="1">
          <mxGeometry x="455" y="70" width="190" height="50" as="geometry" />
        </mxCell>
        <mxCell id="KhCQIPUPEyG-kLh92zz_-7" value="LOGIN" style="whiteSpace=wrap;html=1;rounded=0;shadow=0;labelBackgroundColor=none;strokeWidth=1;fontFamily=Verdana;fontSize=28;align=center;comic=1;" vertex="1" parent="1">
          <mxGeometry x="820" y="60" width="140" height="50" as="geometry" />
        </mxCell>
        <mxCell id="KhCQIPUPEyG-kLh92zz_-9" value="SIGN UP" style="whiteSpace=wrap;html=1;rounded=0;shadow=0;labelBackgroundColor=none;strokeWidth=1;fontFamily=Verdana;fontSize=28;align=center;comic=1;" vertex="1" parent="1">
          <mxGeometry x="990" y="60" width="140" height="50" as="geometry" />
        </mxCell>
        <mxCell id="KhCQIPUPEyG-kLh92zz_-10" value="" style="line;strokeWidth=1;html=1;rounded=0;shadow=0;labelBackgroundColor=none;fillColor=none;fontFamily=Verdana;fontSize=14;fontColor=#000000;align=center;comic=1;" vertex="1" parent="1">
          <mxGeometry x="80" y="460" width="1060" height="10" as="geometry" />
        </mxCell>
        <mxCell id="KhCQIPUPEyG-kLh92zz_-11" value="LOGO" style="whiteSpace=wrap;html=1;rounded=0;shadow=0;labelBackgroundColor=none;strokeWidth=1;fontFamily=Verdana;fontSize=28;align=center;comic=1;" vertex="1" parent="1">
          <mxGeometry x="90" y="480" width="110" height="40" as="geometry" />
        </mxCell>
        <mxCell id="KhCQIPUPEyG-kLh92zz_-12" value="" style="whiteSpace=wrap;html=1;rounded=0;shadow=0;labelBackgroundColor=none;strokeWidth=1;fontFamily=Verdana;fontSize=28;align=center;comic=1;fillColor=none;" vertex="1" parent="1">
          <mxGeometry x="140" y="190" width="250" height="230" as="geometry" />
        </mxCell>
        <mxCell id="KhCQIPUPEyG-kLh92zz_-13" value="" style="whiteSpace=wrap;html=1;rounded=0;shadow=0;labelBackgroundColor=none;strokeWidth=1;fontFamily=Verdana;fontSize=28;align=center;comic=1;fillColor=none;" vertex="1" parent="1">
          <mxGeometry x="485" y="190" width="250" height="230" as="geometry" />
        </mxCell>
        <mxCell id="KhCQIPUPEyG-kLh92zz_-14" value="" style="whiteSpace=wrap;html=1;rounded=0;shadow=0;labelBackgroundColor=none;strokeWidth=1;fontFamily=Verdana;fontSize=28;align=center;comic=1;fillColor=none;" vertex="1" parent="1">
          <mxGeometry x="840" y="190" width="250" height="230" as="geometry" />
        </mxCell>
        <mxCell id="KhCQIPUPEyG-kLh92zz_-17" value="&amp;nbsp;NEWS" style="whiteSpace=wrap;html=1;rounded=0;shadow=0;labelBackgroundColor=none;strokeWidth=1;fontFamily=Verdana;fontSize=28;align=center;comic=1;" vertex="1" parent="1">
          <mxGeometry x="260" y="230" width="130" height="50" as="geometry" />
        </mxCell>
        <mxCell id="KhCQIPUPEyG-kLh92zz_-18" value="DETAILS" style="whiteSpace=wrap;html=1;rounded=0;shadow=0;labelBackgroundColor=none;strokeWidth=1;fontFamily=Verdana;fontSize=28;align=center;comic=1;" vertex="1" parent="1">
          <mxGeometry x="170" y="360" width="130" height="50" as="geometry" />
        </mxCell>
        <mxCell id="KhCQIPUPEyG-kLh92zz_-19" value="DETAILS" style="whiteSpace=wrap;html=1;rounded=0;shadow=0;labelBackgroundColor=none;strokeWidth=1;fontFamily=Verdana;fontSize=28;align=center;comic=1;" vertex="1" parent="1">
          <mxGeometry x="860" y="360" width="130" height="50" as="geometry" />
        </mxCell>
        <mxCell id="KhCQIPUPEyG-kLh92zz_-20" value="DETAILS" style="whiteSpace=wrap;html=1;rounded=0;shadow=0;labelBackgroundColor=none;strokeWidth=1;fontFamily=Verdana;fontSize=28;align=center;comic=1;" vertex="1" parent="1">
          <mxGeometry x="500" y="350" width="130" height="50" as="geometry" />
        </mxCell>
        <mxCell id="KhCQIPUPEyG-kLh92zz_-21" value="&amp;nbsp;NEWS" style="whiteSpace=wrap;html=1;rounded=0;shadow=0;labelBackgroundColor=none;strokeWidth=1;fontFamily=Verdana;fontSize=28;align=center;comic=1;" vertex="1" parent="1">
          <mxGeometry x="960" y="230" width="130" height="50" as="geometry" />
        </mxCell>
        <mxCell id="KhCQIPUPEyG-kLh92zz_-22" value="&amp;nbsp;NEWS" style="whiteSpace=wrap;html=1;rounded=0;shadow=0;labelBackgroundColor=none;strokeWidth=1;fontFamily=Verdana;fontSize=28;align=center;comic=1;" vertex="1" parent="1">
          <mxGeometry x="590" y="230" width="130" height="50" as="geometry" />
        </mxCell>
        <mxCell id="KhCQIPUPEyG-kLh92zz_-23" style="edgeStyle=none;curved=1;rounded=0;orthogonalLoop=1;jettySize=auto;html=1;exitX=0.5;exitY=1;exitDx=0;exitDy=0;fontSize=12;startSize=8;endSize=8;" edge="1" parent="1" source="KhCQIPUPEyG-kLh92zz_-22" target="KhCQIPUPEyG-kLh92zz_-22">
          <mxGeometry relative="1" as="geometry" />
        </mxCell>
        <mxCell id="KhCQIPUPEyG-kLh92zz_-24" value="Agile Software Management System" style="text;html=1;strokeColor=none;fillColor=none;align=center;verticalAlign=middle;whiteSpace=wrap;rounded=0;fontSize=16;" vertex="1" parent="1">
          <mxGeometry x="70" y="530" width="320" height="30" as="geometry" />
        </mxCell>
        <mxCell id="KhCQIPUPEyG-kLh92zz_-25" value="@E-Pharmacist,&amp;nbsp; Spring Semester 2023" style="text;html=1;strokeColor=none;fillColor=none;align=center;verticalAlign=middle;whiteSpace=wrap;rounded=0;fontSize=16;" vertex="1" parent="1">
          <mxGeometry x="751" y="510" width="450" height="30" as="geometry" />
        </mxCell>
        <mxCell id="KhCQIPUPEyG-kLh92zz_-26" value="" style="whiteSpace=wrap;html=1;rounded=0;shadow=0;labelBackgroundColor=none;strokeColor=#000000;strokeWidth=1;fillColor=none;fontFamily=Verdana;fontSize=12;fontColor=#000000;align=center;comic=1;" vertex="1" parent="1">
          <mxGeometry x="90" y="690" width="1060" height="790" as="geometry" />
        </mxCell>
        <mxCell id="KhCQIPUPEyG-kLh92zz_-27" value="" style="line;strokeWidth=1;html=1;rounded=0;shadow=0;labelBackgroundColor=none;fillColor=none;fontFamily=Verdana;fontSize=14;fontColor=#000000;align=center;comic=1;" vertex="1" parent="1">
          <mxGeometry x="90" y="810" width="1060" height="10" as="geometry" />
        </mxCell>
        <mxCell id="KhCQIPUPEyG-kLh92zz_-28" value="ALL NEWS" style="whiteSpace=wrap;html=1;rounded=0;shadow=0;labelBackgroundColor=none;strokeWidth=1;fontFamily=Verdana;fontSize=28;align=center;comic=1;" vertex="1" parent="1">
          <mxGeometry x="120" y="730" width="190" height="50" as="geometry" />
        </mxCell>
        <mxCell id="KhCQIPUPEyG-kLh92zz_-29" value="LOGO" style="whiteSpace=wrap;html=1;rounded=0;shadow=0;labelBackgroundColor=none;strokeWidth=1;fontFamily=Verdana;fontSize=28;align=center;comic=1;" vertex="1" parent="1">
          <mxGeometry x="940" y="730" width="190" height="50" as="geometry" />
        </mxCell>
        <mxCell id="KhCQIPUPEyG-kLh92zz_-30" value="" style="whiteSpace=wrap;html=1;rounded=0;shadow=0;labelBackgroundColor=none;strokeWidth=1;fontFamily=Verdana;fontSize=28;align=center;comic=1;fillColor=none;" vertex="1" parent="1">
          <mxGeometry x="410" y="890" width="450" height="430" as="geometry" />
        </mxCell>
        <mxCell id="KhCQIPUPEyG-kLh92zz_-31" value="LOGO" style="whiteSpace=wrap;html=1;rounded=0;shadow=0;labelBackgroundColor=none;strokeWidth=1;fontFamily=Verdana;fontSize=28;align=center;comic=1;" vertex="1" parent="1">
          <mxGeometry x="110" y="1380" width="110" height="40" as="geometry" />
        </mxCell>
        <mxCell id="KhCQIPUPEyG-kLh92zz_-32" value="" style="line;strokeWidth=1;html=1;rounded=0;shadow=0;labelBackgroundColor=none;fillColor=none;fontFamily=Verdana;fontSize=14;fontColor=#000000;align=center;comic=1;" vertex="1" parent="1">
          <mxGeometry x="90" y="1360" width="1060" height="10" as="geometry" />
        </mxCell>
        <mxCell id="KhCQIPUPEyG-kLh92zz_-33" value="Agile Software Management System" style="text;html=1;strokeColor=none;fillColor=none;align=center;verticalAlign=middle;whiteSpace=wrap;rounded=0;fontSize=16;" vertex="1" parent="1">
          <mxGeometry x="80" y="1440" width="320" height="30" as="geometry" />
        </mxCell>
        <mxCell id="KhCQIPUPEyG-kLh92zz_-34" value="@E-Pharmacist,&amp;nbsp; Spring Semester 2023" style="text;html=1;strokeColor=none;fillColor=none;align=center;verticalAlign=middle;whiteSpace=wrap;rounded=0;fontSize=16;" vertex="1" parent="1">
          <mxGeometry x="780" y="1440" width="450" height="30" as="geometry" />
        </mxCell>
        <mxCell id="KhCQIPUPEyG-kLh92zz_-35" value="&lt;font style=&quot;font-size: 21px;&quot;&gt;&lt;b&gt;CREATE A NEW ACCOUNT&lt;/b&gt;&lt;/font&gt;" style="text;html=1;strokeColor=none;fillColor=none;align=center;verticalAlign=middle;whiteSpace=wrap;rounded=0;fontSize=16;" vertex="1" parent="1">
          <mxGeometry x="365" y="1820" width="340" height="30" as="geometry" />
        </mxCell>
        <mxCell id="KhCQIPUPEyG-kLh92zz_-36" value="&lt;font style=&quot;font-size: 21px;&quot;&gt;&lt;b&gt;LOG INTO YOUR ACCOUNT&lt;/b&gt;&lt;/font&gt;" style="text;html=1;strokeColor=none;fillColor=none;align=center;verticalAlign=middle;whiteSpace=wrap;rounded=0;fontSize=16;" vertex="1" parent="1">
          <mxGeometry x="400" y="920" width="410" height="30" as="geometry" />
        </mxCell>
        <mxCell id="KhCQIPUPEyG-kLh92zz_-37" value="" style="whiteSpace=wrap;html=1;rounded=0;shadow=0;labelBackgroundColor=none;strokeWidth=1;fontFamily=Verdana;fontSize=28;align=center;comic=1;" vertex="1" parent="1">
          <mxGeometry x="470" y="1010" width="330" height="30" as="geometry" />
        </mxCell>
        <mxCell id="KhCQIPUPEyG-kLh92zz_-38" value="" style="whiteSpace=wrap;html=1;rounded=0;shadow=0;labelBackgroundColor=none;strokeWidth=1;fontFamily=Verdana;fontSize=28;align=center;comic=1;" vertex="1" parent="1">
          <mxGeometry x="470" y="1140" width="340" height="30" as="geometry" />
        </mxCell>
        <mxCell id="KhCQIPUPEyG-kLh92zz_-39" value="&lt;b&gt;Email address&lt;/b&gt;" style="text;html=1;strokeColor=none;fillColor=none;align=center;verticalAlign=middle;whiteSpace=wrap;rounded=0;fontSize=16;" vertex="1" parent="1">
          <mxGeometry x="430" y="970" width="210" height="30" as="geometry" />
        </mxCell>
        <mxCell id="KhCQIPUPEyG-kLh92zz_-41" value="&lt;b&gt;Password&lt;/b&gt;" style="text;html=1;strokeColor=none;fillColor=none;align=center;verticalAlign=middle;whiteSpace=wrap;rounded=0;fontSize=16;" vertex="1" parent="1">
          <mxGeometry x="450" y="1090" width="150" height="30" as="geometry" />
        </mxCell>
        <mxCell id="KhCQIPUPEyG-kLh92zz_-42" value="LOGIN" style="whiteSpace=wrap;html=1;rounded=0;shadow=0;labelBackgroundColor=none;strokeWidth=1;fontFamily=Verdana;fontSize=28;align=center;comic=1;fillColor=#3333FF;" vertex="1" parent="1">
          <mxGeometry x="500" y="1225" width="130" height="35" as="geometry" />
        </mxCell>
        <mxCell id="KhCQIPUPEyG-kLh92zz_-43" value="" style="whiteSpace=wrap;html=1;rounded=0;shadow=0;labelBackgroundColor=none;strokeColor=#000000;strokeWidth=1;fillColor=none;fontFamily=Verdana;fontSize=12;fontColor=#000000;align=center;comic=1;" vertex="1" parent="1">
          <mxGeometry x="90" y="1610" width="1060" height="980" as="geometry" />
        </mxCell>
        <mxCell id="KhCQIPUPEyG-kLh92zz_-44" value="" style="line;strokeWidth=1;html=1;rounded=0;shadow=0;labelBackgroundColor=none;fillColor=none;fontFamily=Verdana;fontSize=14;fontColor=#000000;align=center;comic=1;" vertex="1" parent="1">
          <mxGeometry x="90" y="2390" width="1060" height="180" as="geometry" />
        </mxCell>
        <mxCell id="KhCQIPUPEyG-kLh92zz_-45" value="" style="line;strokeWidth=1;html=1;rounded=0;shadow=0;labelBackgroundColor=none;fillColor=none;fontFamily=Verdana;fontSize=14;fontColor=#000000;align=center;comic=1;" vertex="1" parent="1">
          <mxGeometry x="90" y="1700" width="1060" height="10" as="geometry" />
        </mxCell>
        <mxCell id="KhCQIPUPEyG-kLh92zz_-46" value="LOGO" style="whiteSpace=wrap;html=1;rounded=0;shadow=0;labelBackgroundColor=none;strokeWidth=1;fontFamily=Verdana;fontSize=28;align=center;comic=1;" vertex="1" parent="1">
          <mxGeometry x="940" y="1630" width="190" height="50" as="geometry" />
        </mxCell>
        <mxCell id="KhCQIPUPEyG-kLh92zz_-47" value="ALL NEWS" style="whiteSpace=wrap;html=1;rounded=0;shadow=0;labelBackgroundColor=none;strokeWidth=1;fontFamily=Verdana;fontSize=28;align=center;comic=1;" vertex="1" parent="1">
          <mxGeometry x="100" y="1630" width="190" height="50" as="geometry" />
        </mxCell>
        <mxCell id="KhCQIPUPEyG-kLh92zz_-48" value="" style="whiteSpace=wrap;html=1;rounded=0;shadow=0;labelBackgroundColor=none;strokeWidth=1;fontFamily=Verdana;fontSize=28;align=center;comic=1;fillColor=none;" vertex="1" parent="1">
          <mxGeometry x="330" y="1790" width="710" height="640" as="geometry" />
        </mxCell>
        <mxCell id="KhCQIPUPEyG-kLh92zz_-49" value="" style="whiteSpace=wrap;html=1;rounded=0;shadow=0;labelBackgroundColor=none;strokeWidth=1;fontFamily=Verdana;fontSize=28;align=center;comic=1;" vertex="1" parent="1">
          <mxGeometry x="370" y="1920" width="390" height="30" as="geometry" />
        </mxCell>
        <mxCell id="KhCQIPUPEyG-kLh92zz_-50" value="" style="whiteSpace=wrap;html=1;rounded=0;shadow=0;labelBackgroundColor=none;strokeWidth=1;fontFamily=Verdana;fontSize=28;align=center;comic=1;" vertex="1" parent="1">
          <mxGeometry x="370" y="2190" width="390" height="30" as="geometry" />
        </mxCell>
        <mxCell id="KhCQIPUPEyG-kLh92zz_-51" value="" style="whiteSpace=wrap;html=1;rounded=0;shadow=0;labelBackgroundColor=none;strokeWidth=1;fontFamily=Verdana;fontSize=28;align=center;comic=1;" vertex="1" parent="1">
          <mxGeometry x="370" y="2095" width="390" height="30" as="geometry" />
        </mxCell>
        <mxCell id="KhCQIPUPEyG-kLh92zz_-52" value="" style="whiteSpace=wrap;html=1;rounded=0;shadow=0;labelBackgroundColor=none;strokeWidth=1;fontFamily=Verdana;fontSize=28;align=center;comic=1;" vertex="1" parent="1">
          <mxGeometry x="370" y="2000" width="390" height="30" as="geometry" />
        </mxCell>
        <mxCell id="KhCQIPUPEyG-kLh92zz_-53" value="" style="ellipse;whiteSpace=wrap;html=1;aspect=fixed;fontSize=16;fillColor=#E6E6E6;" vertex="1" parent="1">
          <mxGeometry x="410" y="2300" width="20" height="20" as="geometry" />
        </mxCell>
        <mxCell id="KhCQIPUPEyG-kLh92zz_-55" value="" style="ellipse;whiteSpace=wrap;html=1;aspect=fixed;fontSize=16;fillColor=#E6E6E6;" vertex="1" parent="1">
          <mxGeometry x="410" y="2300" width="20" height="20" as="geometry" />
        </mxCell>
        <mxCell id="KhCQIPUPEyG-kLh92zz_-56" value="" style="ellipse;whiteSpace=wrap;html=1;aspect=fixed;fontSize=16;fillColor=#E6E6E6;" vertex="1" parent="1">
          <mxGeometry x="535" y="2300" width="20" height="20" as="geometry" />
        </mxCell>
        <mxCell id="KhCQIPUPEyG-kLh92zz_-57" value="" style="ellipse;whiteSpace=wrap;html=1;aspect=fixed;fontSize=16;fillColor=#E6E6E6;" vertex="1" parent="1">
          <mxGeometry x="770" y="2300" width="20" height="20" as="geometry" />
        </mxCell>
        <mxCell id="KhCQIPUPEyG-kLh92zz_-59" value="SIGNUP" style="whiteSpace=wrap;html=1;rounded=0;shadow=0;labelBackgroundColor=none;strokeWidth=1;fontFamily=Verdana;fontSize=28;align=center;comic=1;fillColor=#3333FF;" vertex="1" parent="1">
          <mxGeometry x="420" y="2370" width="130" height="35" as="geometry" />
        </mxCell>
        <mxCell id="KhCQIPUPEyG-kLh92zz_-60" value="&lt;b&gt;Name&lt;/b&gt;" style="text;html=1;strokeColor=none;fillColor=none;align=center;verticalAlign=middle;whiteSpace=wrap;rounded=0;fontSize=16;" vertex="1" parent="1">
          <mxGeometry x="360" y="1870" width="110" height="30" as="geometry" />
        </mxCell>
        <mxCell id="KhCQIPUPEyG-kLh92zz_-61" value="&lt;b&gt;Email address&lt;/b&gt;" style="text;html=1;strokeColor=none;fillColor=none;align=center;verticalAlign=middle;whiteSpace=wrap;rounded=0;fontSize=16;" vertex="1" parent="1">
          <mxGeometry x="340" y="1960" width="200" height="30" as="geometry" />
        </mxCell>
        <mxCell id="KhCQIPUPEyG-kLh92zz_-62" value="&lt;b&gt;Confirm Password&lt;/b&gt;" style="text;html=1;strokeColor=none;fillColor=none;align=center;verticalAlign=middle;whiteSpace=wrap;rounded=0;fontSize=16;" vertex="1" parent="1">
          <mxGeometry x="370" y="2150" width="160" height="30" as="geometry" />
        </mxCell>
        <mxCell id="KhCQIPUPEyG-kLh92zz_-63" value="&lt;b&gt;&lt;font style=&quot;font-size: 18px;&quot;&gt;Role&lt;/font&gt;&lt;/b&gt;" style="text;html=1;strokeColor=none;fillColor=none;align=center;verticalAlign=middle;whiteSpace=wrap;rounded=0;fontSize=16;" vertex="1" parent="1">
          <mxGeometry x="390" y="2250" width="110" height="30" as="geometry" />
        </mxCell>
        <mxCell id="KhCQIPUPEyG-kLh92zz_-66" value="&lt;b&gt;Password&lt;/b&gt;" style="text;html=1;strokeColor=none;fillColor=none;align=center;verticalAlign=middle;whiteSpace=wrap;rounded=0;fontSize=16;" vertex="1" parent="1">
          <mxGeometry x="360" y="2050" width="110" height="30" as="geometry" />
        </mxCell>
        <mxCell id="KhCQIPUPEyG-kLh92zz_-67" value="&lt;font style=&quot;font-size: 17px;&quot;&gt;User&lt;/font&gt;" style="text;html=1;strokeColor=none;fillColor=none;align=center;verticalAlign=middle;whiteSpace=wrap;rounded=0;fontSize=16;" vertex="1" parent="1">
          <mxGeometry x="400" y="2295" width="110" height="30" as="geometry" />
        </mxCell>
        <mxCell id="KhCQIPUPEyG-kLh92zz_-68" value="&lt;font style=&quot;font-size: 17px;&quot;&gt;Subject Matter Expert&lt;/font&gt;" style="text;html=1;strokeColor=none;fillColor=none;align=center;verticalAlign=middle;whiteSpace=wrap;rounded=0;fontSize=16;" vertex="1" parent="1">
          <mxGeometry x="535" y="2295" width="200" height="30" as="geometry" />
        </mxCell>
        <mxCell id="KhCQIPUPEyG-kLh92zz_-69" value="&lt;font style=&quot;font-size: 17px;&quot;&gt;Pharmacist&lt;/font&gt;" style="text;html=1;strokeColor=none;fillColor=none;align=center;verticalAlign=middle;whiteSpace=wrap;rounded=0;fontSize=16;" vertex="1" parent="1">
          <mxGeometry x="790" y="2295" width="120" height="30" as="geometry" />
        </mxCell>
        <mxCell id="KhCQIPUPEyG-kLh92zz_-71" value="LOGO" style="whiteSpace=wrap;html=1;rounded=0;shadow=0;labelBackgroundColor=none;strokeWidth=1;fontFamily=Verdana;fontSize=28;align=center;comic=1;" vertex="1" parent="1">
          <mxGeometry x="110" y="2490" width="110" height="40" as="geometry" />
        </mxCell>
        <mxCell id="KhCQIPUPEyG-kLh92zz_-72" value="Agile Software Management System" style="text;html=1;strokeColor=none;fillColor=none;align=center;verticalAlign=middle;whiteSpace=wrap;rounded=0;fontSize=16;" vertex="1" parent="1">
          <mxGeometry x="80" y="2540" width="320" height="30" as="geometry" />
        </mxCell>
        <mxCell id="KhCQIPUPEyG-kLh92zz_-73" value="@E-Pharmacist,&amp;nbsp; Spring Semester 2023" style="text;html=1;strokeColor=none;fillColor=none;align=center;verticalAlign=middle;whiteSpace=wrap;rounded=0;fontSize=16;" vertex="1" parent="1">
          <mxGeometry x="751" y="2540" width="450" height="30" as="geometry" />
        </mxCell>
      </root>
    </mxGraphModel>
  </diagram>
</mxfile>
